# xmcd CD database file
#
# Track frame offsets:
#	150
#	32062
#	111655
#	147717
#	175989
#
# Disc length: 3278 seconds
#
# Revision: 0
# Processed by: cddbd v1.5.2PL0 Copyright (c) Steve Scherf et al.
# Submitted via: CDex 1.51
#
DISCID=4c0ccc05
DTITLE=Esbjörn Svensson Trio - Live in Hamburg 2006 - Disk 2
DYEAR=2006
DGENRE=Jazz
TTITLE0=The goldhearted miner
TTITLE1=Dolores in a shoestand
TTITLE2=Sipping on the solid ground
TTITLE3=Goldwrap
TTITLE4=Behind the yashmak
EXTD=YEAR: 2006
EXTT0=
EXTT1=
EXTT2=
EXTT3=
EXTT4=
PLAYORDER=
